<?xml version="1.0" standalone="no"?><!DOCTYPE svg PUBLIC "-//W3C//DTD SVG 1.1//EN" "http://www.w3.org/Graphics/SVG/1.1/DTD/svg11.dtd"><svg t="1669769624727" class="icon" viewBox="0 0 1024 1024" version="1.1" xmlns="http://www.w3.org/2000/svg" p-id="2891" xmlns:xlink="http://www.w3.org/1999/xlink" width="200" height="200"><path d="M768 96H320c-88 0-160 72-160 160v96H128c-17.6 0-32 14.4-32 32s14.4 32 32 32h32v192H128c-17.6 0-32 14.4-32 32s14.4 32 32 32h32v96c0 88 72 160 160 160h448c88 0 160-72 160-160V256c0-88-72-160-160-160z m96 672c0 52.8-43.2 96-96 96H320c-52.8 0-96-43.2-96-96v-96h32c17.6 0 32-14.4 32-32s-14.4-32-32-32h-32V416h32c17.6 0 32-14.4 32-32s-14.4-32-32-32h-32v-96c0-52.8 43.2-96 96-96h448c52.8 0 96 43.2 96 96v512z" fill="#4A576A" p-id="2892"></path><path d="M659.2 464c17.6-22.4 28.8-49.6 28.8-80 0-70.4-57.6-128-128-128s-128 57.6-128 128c0 30.4 11.2 57.6 28.8 80-73.6 32-124.8 113.6-124.8 208 0 52.8 43.2 96 96 96h256c52.8 0 96-43.2 96-96 0-94.4-51.2-176-124.8-208zM560 320c35.2 0 64 28.8 64 64s-28.8 64-64 64-64-28.8-64-64 28.8-64 64-64z m128 384H432c-17.6 0-32-14.4-32-32 0-88 59.2-160 131.2-160h56c72 0 131.2 72 131.2 160 1.6 17.6-12.8 32-30.4 32z" fill="#4A576A" p-id="2893"></path></svg>