<?xml version="1.0" standalone="no"?><!DOCTYPE svg PUBLIC "-//W3C//DTD SVG 1.1//EN" "http://www.w3.org/Graphics/SVG/1.1/DTD/svg11.dtd"><svg t="1669891825372" class="icon" viewBox="0 0 1024 1024" version="1.1" xmlns="http://www.w3.org/2000/svg" p-id="8563" xmlns:xlink="http://www.w3.org/1999/xlink" width="200" height="200"><path d="M275.2 172.8c-57.6 0-102.4 51.2-102.4 102.4v147.2h44.8V275.2c0-38.4 32-64 64-64h147.2l-6.4-38.4H275.2zM211.2 742.4V595.2h-38.4v147.2c0 57.6 51.2 102.4 102.4 102.4h147.2v-38.4H275.2c-32 0-64-32-64-64zM806.4 742.4c0 38.4-32 64-64 64H595.2v44.8h147.2c57.6 0 102.4-51.2 102.4-102.4V601.6l-38.4-6.4v147.2zM819.2 198.4c-19.2-19.2-44.8-32-76.8-32H601.6v44.8h147.2c32 0 64 25.6 64 64v147.2h44.8V275.2c-6.4-25.6-19.2-51.2-38.4-76.8z" fill="#515151" p-id="8564"></path><path d="M512 262.4C377.6 262.4 262.4 377.6 262.4 512s108.8 249.6 249.6 249.6 249.6-108.8 249.6-249.6S646.4 262.4 512 262.4z m0 460.8c-121.6 0-211.2-89.6-211.2-211.2S396.8 300.8 512 300.8c115.2 0 211.2 96 211.2 211.2 0 115.2-96 211.2-211.2 211.2z" fill="#515151" p-id="8565"></path><path d="M646.4 537.6c0 76.8-57.6 134.4-134.4 134.4s-134.4-57.6-134.4-134.4h268.8z" fill="#515151" p-id="8566"></path><path d="M588.8 441.6m-25.6 0a25.6 25.6 0 1 0 51.2 0 25.6 25.6 0 1 0-51.2 0Z" fill="#515151" p-id="8567"></path><path d="M588.8 467.2c-12.8 0-25.6-12.8-25.6-25.6s12.8-25.6 25.6-25.6 25.6 12.8 25.6 25.6-12.8 25.6-25.6 25.6z m0-57.6c-12.8 0-25.6 12.8-25.6 25.6s12.8 25.6 25.6 25.6 25.6-12.8 25.6-25.6-12.8-25.6-25.6-25.6z" fill="#515151" p-id="8568"></path><path d="M428.8 441.6m-25.6 0a25.6 25.6 0 1 0 51.2 0 25.6 25.6 0 1 0-51.2 0Z" fill="#515151" p-id="8569"></path><path d="M428.8 467.2c-12.8 0-25.6-12.8-25.6-25.6s12.8-25.6 25.6-25.6c19.2 0 25.6 12.8 25.6 25.6 6.4 12.8-6.4 25.6-25.6 25.6z m0-57.6c-12.8 0-25.6 12.8-25.6 25.6s12.8 25.6 25.6 25.6c19.2 0 25.6-12.8 25.6-25.6 6.4-12.8-6.4-25.6-25.6-25.6z" fill="#515151" p-id="8570"></path></svg>