<svg t="1670289748292" class="icon" viewBox="0 0 1024 1024" version="1.1" xmlns="http://www.w3.org/2000/svg" p-id="25145" width="200" height="200"><path d="M42.624 512a467.797333 467.797333 0 0 1 136.533333-332.8 482.773333 482.773333 0 0 1 332.8-136.533333 465.322667 465.322667 0 0 1 328.533334 136.533333A468.650667 468.650667 0 1 1 42.624 512z m183.466667-285.866667a403.754667 403.754667 0 0 0-119.466667 285.866667 407.850667 407.850667 0 0 0 405.333333 405.333333 405.333333 405.333333 0 1 0-285.866666-691.2z m136.533333 418.133334a33.664 33.664 0 0 1 34.133333-34.133334 31.445333 31.445333 0 0 1 34.133334 34.133334 85.333333 85.333333 0 1 0 170.666666 0 33.706667 33.706667 0 0 1 34.133334-34.133334 31.402667 31.402667 0 0 1 34.133333 34.133334 161.493333 161.493333 0 0 1-157.866667 149.333333 151.210667 151.210667 0 0 1-149.333333-149.333333z m298.666667-264.533334a64 64 0 1 1 64 64 65.536 65.536 0 0 1-64-64z m-426.666667 0a64 64 0 1 1 64 64 65.749333 65.749333 0 0 1-64-64z" p-id="25146"></path></svg>
